<svg width="52" height="53" viewBox="0 0 52 53" fill="none" xmlns="http://www.w3.org/2000/svg">
<path d="M25.9999 4.83325C14.0399 4.83325 4.33325 14.5399 4.33325 26.4999C4.33325 38.4599 14.0399 48.1666 25.9999 48.1666C37.9599 48.1666 47.6666 38.4599 47.6666 26.4999C47.6666 14.5399 37.9599 4.83325 25.9999 4.83325ZM33.6482 26.5649C33.3232 26.8899 32.9116 27.0416 32.4999 27.0416C32.0882 27.0416 31.6766 26.8899 31.3516 26.5649L27.6249 22.8383V34.0833C27.6249 34.9716 26.8883 35.7083 25.9999 35.7083C25.1116 35.7083 24.3749 34.9716 24.3749 34.0833V22.8383L20.6483 26.5649C20.0199 27.1933 18.9799 27.1933 18.3516 26.5649C17.7233 25.9366 17.7233 24.8966 18.3516 24.2683L24.8516 17.7683C25.4799 17.1399 26.5199 17.1399 27.1483 17.7683L33.6482 24.2683C34.2766 24.8966 34.2766 25.9366 33.6482 26.5649Z" fill="#2C2C2C"/>
</svg>
