<svg width="40" height="40" viewBox="0 0 40 40" fill="none" xmlns="http://www.w3.org/2000/svg">
<path d="M20 36.6667C29.2048 36.6667 36.6667 29.2048 36.6667 20C36.6667 10.7953 29.2048 3.33337 20 3.33337C10.7953 3.33337 3.33337 10.7953 3.33337 20C3.33337 29.2048 10.7953 36.6667 20 36.6667Z" fill="#2C2C2C"/>
<path d="M22.1 27.1334C21.7833 27.1334 21.4667 27.0167 21.2167 26.7667L15.3333 20.8833C14.85 20.4 14.85 19.6 15.3333 19.1167L21.2167 13.2333C21.7 12.75 22.5 12.75 22.9833 13.2333C23.4667 13.7167 23.4667 14.5167 22.9833 15L17.9833 20L22.9833 25C23.4667 25.4834 23.4667 26.2833 22.9833 26.7667C22.75 27.0167 22.4333 27.1334 22.1 27.1334Z" fill="white"/>
</svg>
