<svg width="32" height="32" viewBox="0 0 32 32" fill="none" xmlns="http://www.w3.org/2000/svg">
<rect width="32" height="32" rx="16" fill="#757575"/>
<g clip-path="url(#clip0_1591_8262)">
<path d="M13.6965 22.5449C13.6965 22.5794 13.6965 22.6063 13.6965 22.6331C13.6947 22.9907 13.7019 23.3483 13.6894 23.7054C13.6733 24.1762 13.4378 24.519 13.0355 24.7538C12.8531 24.8605 12.6564 24.91 12.446 24.9094C12.0485 24.9094 11.6515 24.9052 11.2539 24.9106C10.7139 24.9177 10.1614 24.5214 10.0165 23.8866C9.99628 23.7984 9.99687 23.7042 9.99687 23.6124C9.99508 23.2744 9.99687 22.9371 9.99687 22.5991C9.99687 22.5818 9.99687 22.5651 9.99687 22.5598C9.8425 22.5133 9.68693 22.4882 9.55163 22.4221C9.06883 22.1849 8.81551 21.7873 8.81491 21.2497C8.81134 18.3839 8.81372 15.5181 8.81372 12.6517C8.81372 11.9513 8.80716 11.251 8.8167 10.5506C8.82624 9.88068 9.0122 9.2584 9.37937 8.69574C9.91939 7.87021 10.6686 7.33437 11.6288 7.10072C11.9042 7.03396 12.1856 7.00118 12.4699 7.00118C14.8165 7.00118 17.1637 6.997 19.5104 7.00296C20.5856 7.00594 21.4976 7.40529 22.2325 8.19148C22.7552 8.75117 23.0545 9.41934 23.1516 10.1769C23.1766 10.3706 23.185 10.5679 23.1856 10.7634C23.188 14.2551 23.1874 17.7473 23.188 21.2389C23.188 21.7819 22.8905 22.2474 22.4131 22.4394C22.3082 22.4817 22.195 22.5037 22.0841 22.5282C22.0287 22.5401 22.0001 22.5526 22.0012 22.6206C22.006 22.9609 21.9983 23.3013 22.0048 23.641C22.0161 24.2037 21.584 24.7657 20.9862 24.8891C20.9093 24.9052 20.8282 24.9088 20.749 24.9094C20.3395 24.9112 19.9294 24.9124 19.5199 24.9094C18.9322 24.9052 18.3803 24.4224 18.3284 23.8347C18.2944 23.4503 18.3099 23.061 18.3034 22.6742C18.3034 22.6569 18.3022 22.639 18.3052 22.6224C18.3165 22.5538 18.2837 22.5341 18.2205 22.5401C18.1764 22.5443 18.1311 22.5419 18.0864 22.5419C16.6434 22.5419 15.2004 22.5419 13.7579 22.5419C13.7406 22.5419 13.7239 22.5443 13.6965 22.5461V22.5449ZM10.1411 17.6686C10.277 17.6686 10.401 17.6686 10.5244 17.6686C14.2646 17.6686 18.0048 17.6686 21.7443 17.6686C21.8218 17.6686 21.8606 17.6297 21.8606 17.5518C21.8606 15.7613 21.8612 13.9707 21.8612 12.1802C21.8612 11.7135 21.8582 11.2462 21.86 10.7795C21.86 10.7092 21.8385 10.6901 21.7712 10.6937C21.6794 10.699 21.5876 10.6949 21.4958 10.6949C17.7407 10.6949 13.9856 10.6949 10.2311 10.6949C10.1793 10.6949 10.1381 10.6883 10.1381 10.7676C10.1405 13.0201 10.1405 15.2725 10.1411 17.525C10.1411 17.5691 10.1411 17.6138 10.1411 17.668V17.6686ZM13.6971 9.36688H18.2968V8.34168C18.2783 8.34049 18.2664 8.3393 18.2545 8.3393C16.8097 8.3393 15.3649 8.3393 13.9195 8.3393C13.8622 8.3393 13.805 8.34109 13.7484 8.3399C13.7102 8.3393 13.6965 8.3536 13.6965 8.39235C13.6977 8.71481 13.6971 9.03727 13.6971 9.36629V9.36688ZM19.6355 20.0963C19.6063 20.6858 20.1171 21.2169 20.7317 21.2205C21.3974 21.224 21.8683 20.6709 21.8618 20.0921C21.8552 19.4842 21.3599 18.9859 20.7495 18.9841C20.1332 18.9823 19.6051 19.4985 19.6355 20.0963ZM12.3668 20.0993C12.3995 19.4955 11.8607 18.993 11.2676 18.9847C10.6603 18.9763 10.1578 19.4669 10.1411 20.06C10.1238 20.6906 10.6293 21.2062 11.208 21.2181C11.9328 21.233 12.4025 20.65 12.3668 20.0993Z" fill="white"/>
<path d="M23.6653 13.5916C23.6653 13.0057 23.6664 12.4192 23.6641 11.8333C23.6641 11.7653 23.6831 11.7415 23.7529 11.7433C23.9734 11.7492 24.1957 11.7343 24.4151 11.7552C24.7501 11.7868 24.9998 12.0818 25.0004 12.4174C25.0004 13.1899 25.0004 13.9623 25.0004 14.7342C25.0004 15.1348 24.7071 15.4328 24.3084 15.437C24.1194 15.4393 23.9311 15.4352 23.7421 15.4376C23.6867 15.4381 23.6658 15.4268 23.6664 15.3642C23.6694 14.773 23.6682 14.1823 23.6682 13.591C23.6676 13.591 23.667 13.591 23.6659 13.591L23.6653 13.5916Z" fill="white"/>
<path d="M8.3344 13.5995C8.3344 14.1854 8.3344 14.7713 8.33499 15.3567C8.33499 15.4139 8.32427 15.4413 8.25691 15.4395C8.05843 15.4347 7.85995 15.4395 7.66146 15.4365C7.30383 15.4306 7.00104 15.1224 7.00045 14.7642C6.99985 13.9822 6.99985 13.2002 7.00045 12.4187C7.00045 12.0784 7.2633 11.7804 7.60186 11.7547C7.82418 11.7381 8.0483 11.7464 8.27122 11.7422C8.31771 11.741 8.33321 11.7637 8.33321 11.8054C8.33321 11.8626 8.3344 11.9199 8.3344 11.9765C8.3344 12.5177 8.3344 13.0589 8.3344 13.6001V13.5995Z" fill="white"/>
</g>
<defs>
<clipPath id="clip0_1591_8262">
<rect width="18" height="17.9118" fill="white" transform="translate(7 7)"/>
</clipPath>
</defs>
</svg>
