<svg width="32" height="32" viewBox="0 0 32 32" fill="none" xmlns="http://www.w3.org/2000/svg">
<rect width="32" height="32" rx="16" fill="#757575"/>
<g clip-path="url(#clip0_2186_2836)">
<path fill-rule="evenodd" clip-rule="evenodd" d="M9.83485 10.9544C10.0519 10.4481 10.4128 10.0167 10.8727 9.71375C11.3327 9.41077 11.8715 9.24951 12.4224 9.25H19.5796C20.7046 9.25 21.7216 9.9205 22.1649 10.9544L23.0559 13.0334C23.1402 13.2303 23.2921 13.3923 23.4834 13.4879C24.0459 13.7691 24.4452 14.2923 24.569 14.9076L24.9459 16.7965C24.983 16.9776 25.001 17.1621 25.001 17.3478V17.8124C25.001 18.7281 24.5622 19.5483 23.876 20.059V22.1875C23.876 22.3367 23.8167 22.4798 23.7112 22.5852C23.6057 22.6907 23.4627 22.75 23.3135 22.75H21.0635C20.9143 22.75 20.7712 22.6907 20.6657 22.5852C20.5602 22.4798 20.501 22.3367 20.501 22.1875V20.6823C19.0475 20.7363 17.4129 20.7813 16.001 20.7813C14.5891 20.7813 12.9545 20.7363 11.501 20.6823V22.1875C11.501 22.3367 11.4417 22.4798 11.3362 22.5852C11.2307 22.6907 11.0877 22.75 10.9385 22.75H8.68848C8.53929 22.75 8.39622 22.6907 8.29073 22.5852C8.18524 22.4798 8.12598 22.3367 8.12598 22.1875V20.059C7.43973 19.5483 7.00098 18.7281 7.00098 17.8124V17.3478C7.00117 17.1626 7.01963 16.978 7.0561 16.7965L7.43298 14.9065C7.55673 14.2923 7.9561 13.768 8.51748 13.4879C8.70962 13.3919 8.86149 13.2308 8.9461 13.0334L9.8371 10.9544H9.83485ZM10.3749 18.25C10.6732 18.25 10.9594 18.1315 11.1703 17.9205C11.3813 17.7095 11.4999 17.4234 11.4999 17.125C11.4999 16.8266 11.3813 16.5405 11.1703 16.3295C10.9594 16.1185 10.6732 16 10.3749 16C10.0765 16 9.79033 16.1185 9.57936 16.3295C9.36838 16.5405 9.24985 16.8266 9.24985 17.125C9.24985 17.4234 9.36838 17.7095 9.57936 17.9205C9.79033 18.1315 10.0765 18.25 10.3749 18.25ZM21.6249 18.25C21.9232 18.25 22.2094 18.1315 22.4203 17.9205C22.6313 17.7095 22.7499 17.4234 22.7499 17.125C22.7499 16.8266 22.6313 16.5405 22.4203 16.3295C22.2094 16.1185 21.9232 16 21.6249 16C21.3265 16 21.0403 16.1185 20.8294 16.3295C20.6184 16.5405 20.4999 16.8266 20.4999 17.125C20.4999 17.4234 20.6184 17.7095 20.8294 17.9205C21.0403 18.1315 21.3265 18.25 21.6249 18.25ZM13.7499 16C13.4515 16 13.1653 16.1185 12.9544 16.3295C12.7434 16.5405 12.6249 16.8266 12.6249 17.125C12.6249 17.4234 12.7434 17.7095 12.9544 17.9205C13.1653 18.1315 13.4515 18.25 13.7499 18.25H18.2499C18.5482 18.25 18.8344 18.1315 19.0453 17.9205C19.2563 17.7095 19.3749 17.4234 19.3749 17.125C19.3749 16.8266 19.2563 16.5405 19.0453 16.3295C18.8344 16.1185 18.5482 16 18.2499 16H13.7499ZM10.2691 12.8376L11.3446 10.6855C11.3914 10.5922 11.4632 10.5137 11.552 10.4589C11.6408 10.404 11.7431 10.375 11.8475 10.375H20.1522C20.2566 10.375 20.3589 10.404 20.4477 10.4589C20.5365 10.5137 20.6083 10.5922 20.6551 10.6855L21.7306 12.8376C21.7746 12.9284 21.7939 13.0291 21.7865 13.1296C21.7792 13.2302 21.7455 13.3271 21.6888 13.4104C21.6321 13.4938 21.5544 13.5608 21.4636 13.6046C21.3728 13.6484 21.272 13.6675 21.1715 13.66C20.1477 13.5779 17.4027 13.4688 15.9999 13.4688C14.597 13.4688 11.8509 13.5779 10.8282 13.66C10.7277 13.6675 10.6269 13.6484 10.5361 13.6046C10.4453 13.5608 10.3676 13.4938 10.3109 13.4104C10.2542 13.3271 10.2205 13.2302 10.2132 13.1296C10.2058 13.0291 10.2251 12.9284 10.2691 12.8376Z" fill="white"/>
</g>
<defs>
<clipPath id="clip0_2186_2836">
<rect width="18" height="18" fill="white" transform="translate(7 7)"/>
</clipPath>
</defs>
</svg>
