<svg width="32" height="33" viewBox="0 0 32 33" fill="none" xmlns="http://www.w3.org/2000/svg">
<path d="M4 9.47455C4 6.72718 6.22718 4.5 8.97455 4.5H23.0255C25.7728 4.5 28 6.72718 28 9.47455V23.5255C28 26.2728 25.7728 28.5 23.0255 28.5H8.97455C6.22718 28.5 4 26.2728 4 23.5255V9.47455Z" fill="#757575"/>
<g clip-path="url(#clip0_220_2859)">
<path d="M19.3849 17.6763L19.7394 15.3675H17.5239V13.8693C17.5239 13.2378 17.8332 12.6218 18.8256 12.6218H19.8326V10.6563C19.8326 10.6563 18.9189 10.5004 18.0449 10.5004C16.2206 10.5004 15.0281 11.6063 15.0281 13.6081V15.3679H13V17.6767H15.0281V23.2583H17.5239V17.6767L19.3849 17.6763Z" fill="white"/>
</g>
<defs>
<clipPath id="clip0_220_2859">
<rect width="12.7579" height="12.7579" fill="white" transform="translate(10 10.5)"/>
</clipPath>
</defs>
</svg>
