<svg width="32" height="32" viewBox="0 0 32 32" fill="none" xmlns="http://www.w3.org/2000/svg">
<rect width="32" height="32" rx="16" fill="#82C288"/>
<g clip-path="url(#clip0_2186_3610)">
<path d="M20.8704 22.5443C19.3754 21.0334 17.9025 19.5844 16.4735 18.0875C15.9699 17.5599 15.6461 17.5319 15.1305 18.0755C13.7175 19.5804 12.2425 21.0274 10.6736 22.6123L9.78027 21.6689C11.9028 19.5425 13.9353 17.4939 15.9958 15.4614C16.5614 14.9018 16.9212 14.4201 16.8132 13.4628C16.5434 11.1864 19.0676 9.03596 21.32 9.43568C22.5192 9.65152 23.2407 10.8547 22.9189 12.2577C22.4113 14.532 20.0609 15.9091 18.3222 15.5493C17.8705 15.4554 17.2749 16.0569 16.6194 16.4067L21.9336 21.613L20.8704 22.5443Z" fill="white"/>
<path d="M9.80001 9.81543L14.7425 14.7839L13.0617 16.4967C11.8485 15.3635 10.6194 14.3682 9.57018 13.207C8.6928 12.2357 8.87667 10.8507 9.80001 9.81543Z" fill="white"/>
</g>
<defs>
<clipPath id="clip0_2186_3610">
<rect width="14" height="13.2246" fill="white" transform="translate(9 9.3877)"/>
</clipPath>
</defs>
</svg>
