<svg width="40" height="40" viewBox="0 0 40 40" fill="none" xmlns="http://www.w3.org/2000/svg">
<path d="M19.9999 36.6667C29.2047 36.6667 36.6666 29.2048 36.6666 20C36.6666 10.7953 29.2047 3.33337 19.9999 3.33337C10.7952 3.33337 3.33325 10.7953 3.33325 20C3.33325 29.2048 10.7952 36.6667 19.9999 36.6667Z" fill="#2C2C2C"/>
<path d="M17.8999 27.1334C17.5832 27.1334 17.2666 27.0167 17.0166 26.7667C16.5332 26.2833 16.5332 25.4834 17.0166 25L22.0166 20L17.0166 15C16.5332 14.5167 16.5332 13.7167 17.0166 13.2333C17.4999 12.75 18.2999 12.75 18.7832 13.2333L24.6666 19.1167C25.1499 19.6 25.1499 20.4 24.6666 20.8833L18.7832 26.7667C18.5332 27.0167 18.2166 27.1334 17.8999 27.1334Z" fill="white"/>
</svg>
