<svg width="32" height="32" viewBox="0 0 32 32" fill="none" xmlns="http://www.w3.org/2000/svg">
<rect x="3" y="2.5" width="21" height="23" fill="#2C2C2C" fill-opacity="0.8"/>
<path d="M24 27H2C1.73478 27 1.48043 26.8946 1.29289 26.7071C1.10536 26.5196 1 26.2652 1 26V2C1 1.73478 1.10536 1.48043 1.29289 1.29289C1.48043 1.10536 1.73478 1 2 1H24C24.2652 1 24.5196 1.10536 24.7071 1.29289C24.8946 1.48043 25 1.73478 25 2V26C25 26.2652 24.8946 26.5196 24.7071 26.7071C24.5196 26.8946 24.2652 27 24 27ZM3 25H23V3H3V25Z" fill="#F5F5F5"/>
<path d="M30 31H8C7.73478 31 7.48043 30.8946 7.29289 30.7071C7.10536 30.5196 7 30.2652 7 30C7 29.7348 7.10536 29.4804 7.29289 29.2929C7.48043 29.1054 7.73478 29 8 29H29V7H28C27.7348 7 27.4804 6.89464 27.2929 6.70711C27.1054 6.51957 27 6.26522 27 6C27 5.73478 27.1054 5.48043 27.2929 5.29289C27.4804 5.10536 27.7348 5 28 5H30C30.2652 5 30.5196 5.10536 30.7071 5.29289C30.8946 5.48043 31 5.73478 31 6V30C31 30.2652 30.8946 30.5196 30.7071 30.7071C30.5196 30.8946 30.2652 31 30 31Z" fill="#F5F5F5"/>
<path d="M1.99958 21.86C1.73724 21.8589 1.48584 21.7548 1.29958 21.57C1.11333 21.3827 1.00879 21.1292 1.00879 20.865C1.00879 20.6009 1.11333 20.3474 1.29958 20.16L5.34958 16C5.79817 15.5419 6.39663 15.2605 7.0356 15.2073C7.67457 15.154 8.31136 15.3325 8.82958 15.71L12.4196 18.31C12.5518 18.4037 12.713 18.4471 12.8743 18.4325C13.0357 18.4178 13.1865 18.346 13.2996 18.23L16.9996 14.51C17.5122 14.0151 18.197 13.7385 18.9096 13.7385C19.6222 13.7385 20.3069 14.0151 20.8196 14.51L24.6996 18.44C24.8621 18.6325 24.9461 18.8792 24.9346 19.1309C24.9232 19.3825 24.8171 19.6206 24.6377 19.7974C24.4583 19.9743 24.2188 20.077 23.967 20.0849C23.7152 20.0927 23.4697 20.0053 23.2796 19.84L19.3996 15.91C19.3351 15.8423 19.2576 15.7883 19.1716 15.7514C19.0857 15.7146 18.9931 15.6955 18.8996 15.6955C18.8061 15.6955 18.7135 15.7146 18.6275 15.7514C18.5416 15.7883 18.464 15.8423 18.3996 15.91L14.6896 19.66C14.2412 20.1178 13.6436 20.3998 13.0052 20.4548C12.3667 20.5099 11.7297 20.3343 11.2096 19.96L7.61958 17.36C7.48932 17.2631 7.32829 17.2167 7.16642 17.2296C7.00456 17.2425 6.85288 17.3137 6.73958 17.43L2.70958 21.56C2.61697 21.6545 2.50652 21.7297 2.38465 21.7812C2.26277 21.8327 2.13189 21.8595 1.99958 21.86Z" fill="#F5F5F5"/>
<path d="M13.8496 12.86C13.0585 12.86 12.2851 12.6254 11.6273 12.1859C10.9695 11.7463 10.4568 11.1216 10.1541 10.3907C9.85134 9.65982 9.77213 8.85555 9.92647 8.07963C10.0808 7.3037 10.4618 6.59097 11.0212 6.03156C11.5806 5.47215 12.2933 5.09119 13.0692 4.93685C13.8452 4.78251 14.6494 4.86172 15.3803 5.16447C16.1112 5.46722 16.736 5.97991 17.1755 6.63771C17.615 7.2955 17.8496 8.06886 17.8496 8.85999C17.8496 9.38527 17.7461 9.90542 17.5451 10.3907C17.3441 10.876 17.0495 11.317 16.678 11.6884C16.3066 12.0598 15.8656 12.3545 15.3803 12.5555C14.895 12.7565 14.3749 12.86 13.8496 12.86ZM13.8496 6.85999C13.454 6.85999 13.0674 6.97729 12.7385 7.19705C12.4096 7.41681 12.1532 7.72917 12.0019 8.09462C11.8505 8.46007 11.8109 8.86221 11.888 9.25017C11.9652 9.63813 12.1557 9.9945 12.4354 10.2742C12.7151 10.5539 13.0715 10.7444 13.4594 10.8216C13.8474 10.8987 14.2495 10.8591 14.615 10.7077C14.9804 10.5564 15.2928 10.3 15.5126 9.97113C15.7323 9.64223 15.8496 9.25555 15.8496 8.85999C15.8496 8.32955 15.6389 7.82085 15.2638 7.44577C14.8888 7.0707 14.38 6.85999 13.8496 6.85999Z" fill="#F5F5F5"/>
</svg>
