<svg xmlns="http://www.w3.org/2000/svg" width="32" height="32" viewBox="0 0 32 32" fill="none">
  <path d="M29.3334 16.3C29.3334 15.4222 29.2539 14.5888 29.1177 13.7777H16.2895V18.7888H23.6345C23.3053 20.4333 22.3403 21.8222 20.9099 22.7666V26.1H25.2919C27.8575 23.7777 29.3334 20.3555 29.3334 16.3Z" fill="#4285F4"/>
  <path d="M16.2895 29.3333C19.9677 29.3333 23.0442 28.1333 25.2919 26.1L20.9099 22.7666C19.6839 23.5666 18.1286 24.0555 16.2895 24.0555C12.7362 24.0555 9.72785 21.7111 8.64937 18.5444H4.13114V21.9777C6.36755 26.3333 10.9653 29.3333 16.2895 29.3333Z" fill="#34A853"/>
  <path d="M8.64937 18.5444C8.36557 17.7444 8.21799 16.8888 8.21799 16C8.21799 15.1111 8.37692 14.2555 8.64937 13.4555V10.0222H4.13114C3.20025 11.8222 2.66669 13.8444 2.66669 16C2.66669 18.1555 3.20025 20.1777 4.13114 21.9777L8.64937 18.5444Z" fill="#FBBC05"/>
  <path d="M16.2895 7.9444C18.2989 7.9444 20.0925 8.62218 21.5116 9.9444L25.3941 6.1444C23.0442 3.98885 19.9677 2.66663 16.2895 2.66663C10.9653 2.66663 6.36755 5.66663 4.13114 10.0222L8.64937 13.4555C9.72785 10.2888 12.7362 7.9444 16.2895 7.9444Z" fill="#EA4335"/>
</svg>