<svg width="468" height="48" viewBox="0 0 468 48" fill="none" xmlns="http://www.w3.org/2000/svg">
<path d="M45.3334 24.3C45.3334 23.4222 45.2539 22.5888 45.1177 21.7777H32.2895V26.7888H39.6345C39.3053 28.4333 38.3403 29.8222 36.9099 30.7666V34.1H41.2919C43.8575 31.7777 45.3334 28.3555 45.3334 24.3Z" fill="#4285F4"/>
<path d="M32.2895 37.3333C35.9677 37.3333 39.0442 36.1333 41.2919 34.1L36.9099 30.7666C35.6839 31.5666 34.1286 32.0555 32.2895 32.0555C28.7362 32.0555 25.7278 29.7111 24.6494 26.5444H20.1311V29.9777C22.3676 34.3333 26.9653 37.3333 32.2895 37.3333Z" fill="#34A853"/>
<path d="M24.6494 26.5444C24.3656 25.7444 24.218 24.8888 24.218 24C24.218 23.1111 24.3769 22.2555 24.6494 21.4555V18.0222H20.1311C19.2002 19.8222 18.6667 21.8444 18.6667 24C18.6667 26.1555 19.2002 28.1777 20.1311 29.9777L24.6494 26.5444Z" fill="#FBBC05"/>
<path d="M32.2895 15.9444C34.2989 15.9444 36.0925 16.6222 37.5116 17.9444L41.3941 14.1444C39.0442 11.9888 35.9677 10.6666 32.2895 10.6666C26.9653 10.6666 22.3676 13.6666 20.1311 18.0222L24.6494 21.4555C25.7278 18.2888 28.7362 15.9444 32.2895 15.9444Z" fill="#EA4335"/>
<path d="M188.109 29.5V17.728H190.197V27.736H195.093V29.5H188.109ZM200.354 29.716C199.622 29.716 198.938 29.536 198.302 29.176C197.666 28.804 197.15 28.276 196.754 27.592C196.358 26.896 196.16 26.062 196.16 25.09C196.16 24.106 196.358 23.272 196.754 22.588C197.15 21.892 197.666 21.364 198.302 21.004C198.938 20.632 199.622 20.446 200.354 20.446C201.098 20.446 201.788 20.632 202.424 21.004C203.06 21.364 203.576 21.892 203.972 22.588C204.368 23.272 204.566 24.106 204.566 25.09C204.566 26.062 204.368 26.896 203.972 27.592C203.576 28.276 203.06 28.804 202.424 29.176C201.788 29.536 201.098 29.716 200.354 29.716ZM200.354 28.024C200.786 28.024 201.158 27.904 201.47 27.664C201.782 27.424 202.022 27.082 202.19 26.638C202.358 26.194 202.442 25.678 202.442 25.09C202.442 24.502 202.358 23.986 202.19 23.542C202.022 23.098 201.782 22.756 201.47 22.516C201.158 22.264 200.786 22.138 200.354 22.138C199.922 22.138 199.55 22.264 199.238 22.516C198.938 22.756 198.704 23.098 198.536 23.542C198.368 23.986 198.284 24.502 198.284 25.09C198.284 25.678 198.368 26.194 198.536 26.638C198.704 27.082 198.938 27.424 199.238 27.664C199.55 27.904 199.922 28.024 200.354 28.024ZM209.693 33.406C208.985 33.406 208.355 33.322 207.803 33.154C207.251 32.986 206.813 32.728 206.489 32.38C206.177 32.044 206.021 31.618 206.021 31.102C206.021 30.73 206.129 30.382 206.345 30.058C206.573 29.746 206.885 29.464 207.281 29.212V29.14C207.065 28.996 206.879 28.804 206.723 28.564C206.567 28.324 206.489 28.024 206.489 27.664C206.489 27.328 206.585 27.016 206.777 26.728C206.981 26.44 207.209 26.206 207.461 26.026V25.954C207.161 25.726 206.891 25.408 206.651 25C206.423 24.592 206.309 24.13 206.309 23.614C206.309 22.942 206.471 22.372 206.795 21.904C207.119 21.424 207.545 21.064 208.073 20.824C208.601 20.572 209.177 20.446 209.801 20.446C210.041 20.446 210.275 20.464 210.503 20.5C210.731 20.536 210.929 20.59 211.097 20.662H214.265V22.192H212.609V22.264C212.777 22.444 212.909 22.654 213.005 22.894C213.101 23.122 213.149 23.392 213.149 23.704C213.149 24.352 212.999 24.898 212.699 25.342C212.399 25.786 211.997 26.122 211.493 26.35C210.989 26.578 210.425 26.692 209.801 26.692C209.609 26.692 209.411 26.674 209.207 26.638C209.003 26.602 208.799 26.542 208.595 26.458C208.475 26.578 208.373 26.698 208.289 26.818C208.205 26.938 208.163 27.1 208.163 27.304C208.163 27.556 208.271 27.754 208.487 27.898C208.703 28.042 209.075 28.114 209.603 28.114H211.169C212.237 28.114 213.041 28.288 213.581 28.636C214.133 28.972 214.409 29.524 214.409 30.292C214.409 30.868 214.217 31.39 213.833 31.858C213.449 32.338 212.903 32.716 212.195 32.992C211.487 33.268 210.653 33.406 209.693 33.406ZM209.801 25.396C210.077 25.396 210.329 25.33 210.557 25.198C210.797 25.054 210.983 24.85 211.115 24.586C211.259 24.31 211.331 23.986 211.331 23.614C211.331 23.05 211.181 22.618 210.881 22.318C210.593 22.018 210.233 21.868 209.801 21.868C209.369 21.868 209.003 22.018 208.703 22.318C208.403 22.618 208.253 23.05 208.253 23.614C208.253 23.986 208.325 24.31 208.469 24.586C208.613 24.85 208.799 25.054 209.027 25.198C209.255 25.33 209.513 25.396 209.801 25.396ZM210.017 32.056C210.485 32.056 210.899 31.99 211.259 31.858C211.619 31.738 211.901 31.564 212.105 31.336C212.309 31.12 212.411 30.886 212.411 30.634C212.411 30.286 212.273 30.052 211.997 29.932C211.733 29.812 211.349 29.752 210.845 29.752H209.639C209.399 29.752 209.183 29.74 208.991 29.716C208.799 29.692 208.613 29.662 208.433 29.626C208.205 29.806 208.031 29.992 207.911 30.184C207.803 30.376 207.749 30.58 207.749 30.796C207.749 31.192 207.953 31.498 208.361 31.714C208.769 31.942 209.321 32.056 210.017 32.056ZM219.57 29.5V20.662H221.64V29.5H219.57ZM220.596 19.114C220.236 19.114 219.936 19.006 219.696 18.79C219.468 18.574 219.354 18.286 219.354 17.926C219.354 17.566 219.468 17.284 219.696 17.08C219.936 16.864 220.236 16.756 220.596 16.756C220.968 16.756 221.268 16.864 221.496 17.08C221.724 17.284 221.838 17.566 221.838 17.926C221.838 18.286 221.724 18.574 221.496 18.79C221.268 19.006 220.968 19.114 220.596 19.114ZM224.281 29.5V20.662H225.991L226.135 21.85H226.207C226.603 21.466 227.035 21.136 227.503 20.86C227.971 20.584 228.505 20.446 229.105 20.446C230.053 20.446 230.743 20.752 231.175 21.364C231.607 21.976 231.823 22.84 231.823 23.956V29.5H229.753V24.226C229.753 23.494 229.645 22.978 229.429 22.678C229.213 22.378 228.859 22.228 228.367 22.228C227.983 22.228 227.641 22.324 227.341 22.516C227.053 22.696 226.723 22.966 226.351 23.326V29.5H224.281ZM239.415 29.5L237.075 20.662H239.199L240.243 25.252C240.339 25.648 240.423 26.056 240.495 26.476C240.567 26.884 240.633 27.352 240.693 27.88H240.765C240.849 27.352 240.927 26.884 240.999 26.476C241.083 26.056 241.167 25.648 241.251 25.252L242.331 20.662H244.491L245.607 25.252C245.703 25.648 245.793 26.056 245.877 26.476C245.961 26.884 246.045 27.352 246.129 27.88H246.201C246.285 27.352 246.357 26.884 246.417 26.476C246.489 26.056 246.567 25.648 246.651 25.252L247.695 20.662H249.675L247.425 29.5H244.779L243.879 25.396C243.795 25 243.711 24.604 243.627 24.208C243.555 23.8 243.483 23.308 243.411 22.732H243.339C243.267 23.308 243.195 23.8 243.123 24.208C243.051 24.604 242.967 25 242.871 25.396L241.971 29.5H239.415ZM251.421 29.5V20.662H253.491V29.5H251.421ZM252.447 19.114C252.087 19.114 251.787 19.006 251.547 18.79C251.319 18.574 251.205 18.286 251.205 17.926C251.205 17.566 251.319 17.284 251.547 17.08C251.787 16.864 252.087 16.756 252.447 16.756C252.819 16.756 253.119 16.864 253.347 17.08C253.575 17.284 253.689 17.566 253.689 17.926C253.689 18.286 253.575 18.574 253.347 18.79C253.119 19.006 252.819 19.114 252.447 19.114ZM259.246 29.68C258.226 29.68 257.5 29.386 257.068 28.798C256.648 28.198 256.438 27.424 256.438 26.476V22.3H255.178V20.752L256.546 20.662L256.798 17.89H258.526V20.662H260.776V22.3H258.526V26.476C258.526 26.992 258.628 27.382 258.832 27.646C259.036 27.898 259.348 28.024 259.768 28.024C259.924 28.024 260.08 28.012 260.236 27.988C260.392 27.964 260.542 27.916 260.686 27.844L261.064 29.302C260.836 29.41 260.566 29.5 260.254 29.572C259.942 29.644 259.606 29.68 259.246 29.68ZM262.636 29.5V16.792H264.706V20.068L264.634 21.778C265.006 21.43 265.42 21.124 265.876 20.86C266.332 20.584 266.86 20.446 267.46 20.446C268.408 20.446 269.098 20.752 269.53 21.364C269.962 21.976 270.178 22.84 270.178 23.956V29.5H268.108V24.226C268.108 23.494 268 22.978 267.784 22.678C267.568 22.378 267.214 22.228 266.722 22.228C266.338 22.228 265.996 22.324 265.696 22.516C265.408 22.696 265.078 22.966 264.706 23.326V29.5H262.636ZM281.389 29.716C280.333 29.716 279.385 29.482 278.545 29.014C277.705 28.546 277.045 27.862 276.565 26.962C276.085 26.05 275.845 24.946 275.845 23.65C275.845 22.69 275.983 21.832 276.259 21.076C276.547 20.32 276.943 19.678 277.447 19.15C277.963 18.61 278.557 18.202 279.229 17.926C279.901 17.65 280.627 17.512 281.407 17.512C282.247 17.512 282.961 17.662 283.549 17.962C284.137 18.262 284.611 18.61 284.971 19.006L283.855 20.284C283.567 19.996 283.237 19.768 282.865 19.6C282.493 19.42 282.031 19.33 281.479 19.33C280.783 19.33 280.171 19.504 279.643 19.852C279.115 20.188 278.707 20.674 278.419 21.31C278.131 21.946 277.987 22.708 277.987 23.596C277.987 24.484 278.125 25.252 278.401 25.9C278.677 26.548 279.079 27.046 279.607 27.394C280.147 27.73 280.807 27.898 281.587 27.898C281.923 27.898 282.241 27.856 282.541 27.772C282.841 27.676 283.087 27.544 283.279 27.376V24.838H281.047V23.128H285.151V28.312C284.755 28.708 284.227 29.044 283.567 29.32C282.919 29.584 282.193 29.716 281.389 29.716ZM291.198 29.716C290.466 29.716 289.782 29.536 289.146 29.176C288.51 28.804 287.994 28.276 287.598 27.592C287.202 26.896 287.004 26.062 287.004 25.09C287.004 24.106 287.202 23.272 287.598 22.588C287.994 21.892 288.51 21.364 289.146 21.004C289.782 20.632 290.466 20.446 291.198 20.446C291.942 20.446 292.632 20.632 293.268 21.004C293.904 21.364 294.42 21.892 294.816 22.588C295.212 23.272 295.41 24.106 295.41 25.09C295.41 26.062 295.212 26.896 294.816 27.592C294.42 28.276 293.904 28.804 293.268 29.176C292.632 29.536 291.942 29.716 291.198 29.716ZM291.198 28.024C291.63 28.024 292.002 27.904 292.314 27.664C292.626 27.424 292.866 27.082 293.034 26.638C293.202 26.194 293.286 25.678 293.286 25.09C293.286 24.502 293.202 23.986 293.034 23.542C292.866 23.098 292.626 22.756 292.314 22.516C292.002 22.264 291.63 22.138 291.198 22.138C290.766 22.138 290.394 22.264 290.082 22.516C289.782 22.756 289.548 23.098 289.38 23.542C289.212 23.986 289.128 24.502 289.128 25.09C289.128 25.678 289.212 26.194 289.38 26.638C289.548 27.082 289.782 27.424 290.082 27.664C290.394 27.904 290.766 28.024 291.198 28.024ZM301.077 29.716C300.345 29.716 299.661 29.536 299.025 29.176C298.389 28.804 297.873 28.276 297.477 27.592C297.081 26.896 296.883 26.062 296.883 25.09C296.883 24.106 297.081 23.272 297.477 22.588C297.873 21.892 298.389 21.364 299.025 21.004C299.661 20.632 300.345 20.446 301.077 20.446C301.821 20.446 302.511 20.632 303.147 21.004C303.783 21.364 304.299 21.892 304.695 22.588C305.091 23.272 305.289 24.106 305.289 25.09C305.289 26.062 305.091 26.896 304.695 27.592C304.299 28.276 303.783 28.804 303.147 29.176C302.511 29.536 301.821 29.716 301.077 29.716ZM301.077 28.024C301.509 28.024 301.881 27.904 302.193 27.664C302.505 27.424 302.745 27.082 302.913 26.638C303.081 26.194 303.165 25.678 303.165 25.09C303.165 24.502 303.081 23.986 302.913 23.542C302.745 23.098 302.505 22.756 302.193 22.516C301.881 22.264 301.509 22.138 301.077 22.138C300.645 22.138 300.273 22.264 299.961 22.516C299.661 22.756 299.427 23.098 299.259 23.542C299.091 23.986 299.007 24.502 299.007 25.09C299.007 25.678 299.091 26.194 299.259 26.638C299.427 27.082 299.661 27.424 299.961 27.664C300.273 27.904 300.645 28.024 301.077 28.024ZM310.415 33.406C309.707 33.406 309.077 33.322 308.525 33.154C307.973 32.986 307.535 32.728 307.211 32.38C306.899 32.044 306.743 31.618 306.743 31.102C306.743 30.73 306.851 30.382 307.067 30.058C307.295 29.746 307.607 29.464 308.003 29.212V29.14C307.787 28.996 307.601 28.804 307.445 28.564C307.289 28.324 307.211 28.024 307.211 27.664C307.211 27.328 307.307 27.016 307.499 26.728C307.703 26.44 307.931 26.206 308.183 26.026V25.954C307.883 25.726 307.613 25.408 307.373 25C307.145 24.592 307.031 24.13 307.031 23.614C307.031 22.942 307.193 22.372 307.517 21.904C307.841 21.424 308.267 21.064 308.795 20.824C309.323 20.572 309.899 20.446 310.523 20.446C310.763 20.446 310.997 20.464 311.225 20.5C311.453 20.536 311.651 20.59 311.819 20.662H314.987V22.192H313.331V22.264C313.499 22.444 313.631 22.654 313.727 22.894C313.823 23.122 313.871 23.392 313.871 23.704C313.871 24.352 313.721 24.898 313.421 25.342C313.121 25.786 312.719 26.122 312.215 26.35C311.711 26.578 311.147 26.692 310.523 26.692C310.331 26.692 310.133 26.674 309.929 26.638C309.725 26.602 309.521 26.542 309.317 26.458C309.197 26.578 309.095 26.698 309.011 26.818C308.927 26.938 308.885 27.1 308.885 27.304C308.885 27.556 308.993 27.754 309.209 27.898C309.425 28.042 309.797 28.114 310.325 28.114H311.891C312.959 28.114 313.763 28.288 314.303 28.636C314.855 28.972 315.131 29.524 315.131 30.292C315.131 30.868 314.939 31.39 314.555 31.858C314.171 32.338 313.625 32.716 312.917 32.992C312.209 33.268 311.375 33.406 310.415 33.406ZM310.523 25.396C310.799 25.396 311.051 25.33 311.279 25.198C311.519 25.054 311.705 24.85 311.837 24.586C311.981 24.31 312.053 23.986 312.053 23.614C312.053 23.05 311.903 22.618 311.603 22.318C311.315 22.018 310.955 21.868 310.523 21.868C310.091 21.868 309.725 22.018 309.425 22.318C309.125 22.618 308.975 23.05 308.975 23.614C308.975 23.986 309.047 24.31 309.191 24.586C309.335 24.85 309.521 25.054 309.749 25.198C309.977 25.33 310.235 25.396 310.523 25.396ZM310.739 32.056C311.207 32.056 311.621 31.99 311.981 31.858C312.341 31.738 312.623 31.564 312.827 31.336C313.031 31.12 313.133 30.886 313.133 30.634C313.133 30.286 312.995 30.052 312.719 29.932C312.455 29.812 312.071 29.752 311.567 29.752H310.361C310.121 29.752 309.905 29.74 309.713 29.716C309.521 29.692 309.335 29.662 309.155 29.626C308.927 29.806 308.753 29.992 308.633 30.184C308.525 30.376 308.471 30.58 308.471 30.796C308.471 31.192 308.675 31.498 309.083 31.714C309.491 31.942 310.043 32.056 310.739 32.056ZM318.705 29.68C318.213 29.68 317.817 29.584 317.517 29.392C317.229 29.188 317.019 28.9 316.887 28.528C316.755 28.156 316.689 27.712 316.689 27.196V16.792H318.759V27.304C318.759 27.568 318.807 27.748 318.903 27.844C318.999 27.94 319.107 27.988 319.227 27.988C319.275 27.988 319.317 27.988 319.353 27.988C319.401 27.976 319.461 27.964 319.533 27.952L319.803 29.5C319.683 29.548 319.527 29.59 319.335 29.626C319.155 29.662 318.945 29.68 318.705 29.68ZM325.374 29.716C324.546 29.716 323.796 29.536 323.124 29.176C322.464 28.804 321.942 28.276 321.558 27.592C321.174 26.896 320.982 26.056 320.982 25.072C320.982 24.112 321.18 23.29 321.576 22.606C321.972 21.91 322.482 21.376 323.106 21.004C323.73 20.632 324.39 20.446 325.086 20.446C325.89 20.446 326.562 20.626 327.102 20.986C327.642 21.346 328.044 21.844 328.308 22.48C328.584 23.104 328.722 23.824 328.722 24.64C328.722 24.832 328.71 25.018 328.686 25.198C328.674 25.378 328.65 25.552 328.614 25.72H322.53V24.136H326.886C326.886 23.5 326.742 23.002 326.454 22.642C326.166 22.27 325.722 22.084 325.122 22.084C324.786 22.084 324.456 22.174 324.132 22.354C323.82 22.534 323.556 22.84 323.34 23.272C323.136 23.704 323.034 24.304 323.034 25.072C323.034 25.768 323.154 26.338 323.394 26.782C323.634 27.214 323.952 27.538 324.348 27.754C324.744 27.958 325.17 28.06 325.626 28.06C326.01 28.06 326.37 28.006 326.706 27.898C327.054 27.79 327.378 27.64 327.678 27.448L328.398 28.78C327.99 29.068 327.522 29.296 326.994 29.464C326.478 29.632 325.938 29.716 325.374 29.716Z" fill="#2C2C2C"/>
<rect x="0.5" y="0.5" width="467" height="47" rx="3.5" stroke="#E0E0E0"/>
</svg>
