<svg width="32" height="32" viewBox="0 0 32 32" fill="none" xmlns="http://www.w3.org/2000/svg">
<rect width="32" height="32" rx="16" fill="#757575"/>
<g clip-path="url(#clip0_378_5162)">
<path d="M11 26V8.00002H17.6573C18.342 7.99202 19.019 8.1655 19.6343 8.50667C20.2232 8.83201 20.7508 9.28402 21.1879 9.83762C21.6211 10.39 21.9648 11.0251 22.203 11.7134C22.4477 12.394 22.5752 13.1215 22.5785 13.8566C22.5776 14.606 22.4575 15.349 22.2242 16.0501C22.0018 16.7365 21.6724 17.3719 21.2517 17.9259C20.8331 18.4768 20.3202 18.9255 19.7441 19.2447C19.1371 19.5788 18.47 19.7481 17.7955 19.7393H13.5031V26H11ZM13.5031 17.2282H17.6343C17.9717 17.2336 18.3052 17.1467 18.6068 16.9749C18.8993 16.8042 19.1546 16.5617 19.3544 16.2652C19.5714 15.9448 19.738 15.5843 19.8469 15.1996C19.9691 14.7657 20.0289 14.3122 20.024 13.8566C20.0301 13.3901 19.9617 12.9263 19.8221 12.4875C19.6977 12.0993 19.5082 11.7422 19.264 11.436C19.0355 11.148 18.7584 10.9149 18.4491 10.7504C18.1521 10.5918 17.8279 10.5094 17.4996 10.5091H13.5031V17.2282Z" fill="white"/>
</g>
<defs>
<clipPath id="clip0_378_5162">
<rect width="11.5714" height="18" fill="white" transform="translate(11 8)"/>
</clipPath>
</defs>
</svg>
