<svg width="32" height="33" viewBox="0 0 32 33" fill="none" xmlns="http://www.w3.org/2000/svg">
<g id="Group">
<path id="Vector" d="M18.1011 23.528L11.2878 19.812C10.6338 20.4612 9.8022 20.9022 8.8979 21.0795C7.9936 21.2568 7.05706 21.1623 6.20635 20.8081C5.35563 20.4539 4.62883 19.8557 4.11758 19.0891C3.60632 18.3224 3.3335 17.4215 3.3335 16.5C3.3335 15.5785 3.60632 14.6776 4.11758 13.9109C4.62883 13.1442 5.35563 12.5461 6.20635 12.1919C7.05706 11.8376 7.9936 11.7432 8.8979 11.9205C9.8022 12.0978 10.6338 12.5388 11.2878 13.188L18.1011 9.47198C17.8674 8.37563 18.0362 7.2318 18.5766 6.24966C19.1169 5.26751 19.9928 4.51269 21.0439 4.12323C22.0951 3.73377 23.2513 3.73568 24.3011 4.12863C25.351 4.52158 26.2243 5.2793 26.7614 6.26323C27.2985 7.24716 27.4635 8.39155 27.2262 9.48712C26.9888 10.5827 26.3651 11.5562 25.469 12.2297C24.5729 12.9032 23.4643 13.2316 22.3459 13.1549C21.2276 13.0782 20.1742 12.6015 19.3784 11.812L12.5651 15.528C12.701 16.1689 12.701 16.8311 12.5651 17.472L19.3784 21.188C20.1742 20.3985 21.2276 19.9218 22.3459 19.8451C23.4643 19.7684 24.5729 20.0968 25.469 20.7703C26.3651 21.4437 26.9888 22.4173 27.2262 23.5128C27.4635 24.6084 27.2985 25.7528 26.7614 26.7367C26.2243 27.7207 25.351 28.4784 24.3011 28.8713C23.2513 29.2643 22.0951 29.2662 21.0439 28.8767C19.9928 28.4873 19.1169 27.7325 18.5766 26.7503C18.0362 25.7682 17.8674 24.6243 18.1011 23.528Z" fill="#757575"/>
</g>
</svg>
