<svg width="32" height="33" viewBox="0 0 32 33" fill="none" xmlns="http://www.w3.org/2000/svg">
<rect y="0.5" width="32" height="32" rx="16" fill="#757575"/>
<path d="M10.8021 24.3889C9.96498 22.3723 9.12789 20.3558 8.2855 18.327C10.7479 17.413 13.1957 16.5042 15.6608 15.5894C15.6608 15.6696 15.6608 15.7348 15.6608 15.8001C15.6608 17.5292 15.6608 19.2583 15.6595 20.9875C15.6595 21.1119 15.6773 21.2277 15.7757 21.3123C15.8734 21.3964 15.9881 21.4193 16.1109 21.3755C16.2341 21.3317 16.305 21.2404 16.3275 21.1133C16.3352 21.0703 16.3336 21.0251 16.3336 20.9811C16.3336 19.23 16.3336 17.4788 16.3334 15.7277C16.3334 15.6887 16.3334 15.6494 16.3334 15.5889C18.8 16.5045 21.25 17.4143 23.7092 18.3273C22.8663 20.3585 22.0295 22.375 21.1926 24.3915C21.2025 24.4045 21.2123 24.4173 21.2221 24.4303C21.3814 24.3369 21.5517 24.2578 21.698 24.1471C22.112 23.8334 22.5629 23.612 23.085 23.5677C23.7567 23.5109 24.3353 23.7511 24.8438 24.1691C25.0461 24.3353 25.045 24.6591 24.8706 24.865C24.7058 25.0598 24.4019 25.0914 24.1875 24.9308C23.9688 24.7671 23.7339 24.6373 23.4632 24.5895C23.0287 24.5128 22.6686 24.688 22.3342 24.9401C21.8386 25.3138 21.2919 25.5325 20.6602 25.4898C20.1499 25.455 19.7045 25.2522 19.3024 24.947C19.0742 24.774 18.8313 24.6344 18.545 24.5877C18.1148 24.5176 17.758 24.6888 17.4295 24.9407C17.0945 25.1973 16.7243 25.3791 16.31 25.4603C15.7903 25.5622 15.3222 25.4043 14.8797 25.1485C14.7388 25.067 14.608 24.9675 14.475 24.8725C13.8967 24.4587 13.2892 24.4802 12.7286 24.9194C12.1662 25.3603 11.5346 25.5859 10.8124 25.4648C10.3817 25.3926 9.99948 25.2029 9.65551 24.9359C9.43603 24.7655 9.19663 24.636 8.92061 24.5879C8.54851 24.5229 8.22631 24.6535 7.9211 24.8499C7.82582 24.9112 7.72868 24.9794 7.62252 25.0126C7.39772 25.0824 7.15806 24.9672 7.05455 24.761C6.95104 24.5542 6.99696 24.2835 7.17425 24.1452C8.13926 23.3939 9.20486 23.3527 10.2168 24.0882C10.392 24.2156 10.5834 24.3207 10.7673 24.4361L10.8023 24.3886L10.8021 24.3889ZM18.5837 17.8169C17.8194 17.8196 17.193 18.4507 17.1978 19.2135C17.2026 19.9781 17.8313 20.6021 18.597 20.6021C19.3571 20.6021 19.9824 19.9691 19.9813 19.201C19.9803 18.4345 19.3537 17.814 18.5837 17.8169Z" fill="white"/>
<path d="M11.0127 16.5934V12.1357H12.0178C12.0178 12.4566 12.0178 12.765 12.0178 13.0731C12.0178 13.4128 12.1287 13.5222 12.4703 13.5222C14.8271 13.5222 17.1839 13.5222 19.5407 13.5222C19.8724 13.5222 19.9749 13.4219 19.9778 13.0866C19.9804 12.7732 19.9783 12.4595 19.9783 12.1346H20.98V16.5905C20.9317 16.5754 20.8871 16.564 20.8443 16.5481C19.7684 16.1489 18.6927 15.7497 17.6173 15.3498C17.1459 15.1746 16.674 15.0013 16.2051 14.8197C16.0541 14.7614 15.9155 14.7744 15.7693 14.829C14.2482 15.397 12.7264 15.9631 11.2048 16.5292C11.1475 16.5504 11.0889 16.5682 11.0135 16.5934H11.0127Z" fill="white"/>
<path d="M12.6982 10.3389H19.297V11.443H12.6982V10.3389Z" fill="white"/>
<path d="M15.0801 9.6573V7.62695H16.9148V9.6573H15.0801Z" fill="white"/>
<path d="M15.0811 12.8462V12.1317C15.1283 12.129 15.1713 12.1248 15.2143 12.1248C15.7403 12.1243 16.2666 12.1272 16.7926 12.1216C16.8999 12.1205 16.9296 12.1537 16.9256 12.257C16.9182 12.4502 16.9235 12.6439 16.9235 12.8464H15.0813L15.0811 12.8462Z" fill="white"/>
<path d="M14.3981 12.1343V12.8456H12.6963V12.1343H14.3981Z" fill="white"/>
<path d="M17.5986 12.8445V12.1343H19.2996V12.8445H17.5986Z" fill="white"/>
<path d="M17.8764 19.1988C17.8838 18.7904 18.2007 18.4817 18.6065 18.487C18.9951 18.4923 19.3183 18.8251 19.3138 19.2153C19.3093 19.6052 18.9767 19.9329 18.5898 19.9292C18.1853 19.9252 17.8687 19.6014 17.8761 19.1988H17.8764Z" fill="white"/>
</svg>
