<svg width="16" height="16" viewBox="0 0 16 16" fill="none" xmlns="http://www.w3.org/2000/svg">
<g id="vuesax/linear/ticket-star">
<g id="ticket-star">
<path id="Vector" d="M11.3302 2.66675H4.66358C2.11025 2.66675 1.39691 3.28008 1.33691 5.66675C2.62358 5.66675 3.66358 6.71341 3.66358 8.00008C3.66358 9.28675 2.62358 10.3267 1.33691 10.3334C1.39691 12.7201 2.11025 13.3334 4.66358 13.3334H11.3302C13.9969 13.3334 14.6636 12.6667 14.6636 10.0001V6.00008C14.6636 3.33341 13.9969 2.66675 11.3302 2.66675Z" stroke="#2C2C2C" stroke-linecap="round" stroke-linejoin="round"/>
<path id="Vector_2" d="M5.99512 2.66675V5.00008" stroke="#2C2C2C" stroke-linecap="round" stroke-linejoin="round"/>
<path id="Vector_3" d="M5.99512 11.0001V13.3334" stroke="#2C2C2C" stroke-linecap="round" stroke-linejoin="round"/>
<path id="Vector_4" d="M10.017 6.22L10.4303 7.05334C10.4703 7.13334 10.5503 7.19334 10.637 7.20667L11.557 7.34C11.7837 7.37334 11.877 7.65334 11.7103 7.81334L11.0437 8.46C10.977 8.52 10.9503 8.61334 10.9637 8.70667L11.1237 9.62C11.1637 9.84667 10.9237 10.02 10.7237 9.91334L9.90367 9.48C9.82367 9.44 9.72367 9.44 9.64367 9.48L8.82367 9.91334C8.617 10.02 8.38367 9.84667 8.42367 9.62L8.58367 8.70667C8.597 8.61334 8.57034 8.52667 8.50367 8.46L7.84367 7.81334C7.677 7.65334 7.77034 7.37334 7.997 7.34L8.917 7.20667C9.01034 7.19334 9.08367 7.14 9.12367 7.05334L9.53034 6.22C9.62367 6.01334 9.917 6.01334 10.017 6.22Z" stroke="#2C2C2C" stroke-linecap="round" stroke-linejoin="round"/>
</g>
</g>
</svg>
