<svg width="32" height="32" viewBox="0 0 32 32" fill="none" xmlns="http://www.w3.org/2000/svg">
<rect width="32" height="32" rx="16" fill="#757575"/>
<g clip-path="url(#clip0_1591_8270)">
<path d="M22.7324 16.0322C23.0805 16.1021 23.26 16.271 23.2819 16.5259C23.3038 16.7795 23.1665 17.0032 22.9383 17.0867C22.7137 17.1688 22.4614 17.0937 22.3186 16.9023C22.1604 16.6899 22.1871 16.4299 22.415 16.1417C21.968 16.3009 21.5467 16.4508 21.0878 16.6139C21.3311 16.6648 21.5036 16.7557 21.588 16.9642C21.6483 17.1128 21.6425 17.2571 21.5757 17.4009C21.4488 17.6745 21.1052 17.785 20.8358 17.6384C20.5287 17.4715 20.4816 17.1492 20.7236 16.7438C17.2092 17.9981 13.7157 19.245 10.1971 20.5006C10.6263 20.6424 10.8029 20.9434 10.6698 21.2621C10.5477 21.5541 10.2093 21.6814 9.9328 21.5389C9.60955 21.3723 9.5509 21.0384 9.79969 20.6433C9.37848 20.7935 8.98304 20.9343 8.61919 21.0639C8.74101 21.1664 8.89248 21.2569 8.99207 21.3868C9.10615 21.536 9.09004 21.7226 9.00399 21.8925C8.86477 22.1664 8.51928 22.2637 8.25856 22.1052C7.96078 21.9241 7.91662 21.5963 8.15994 21.2292C7.72648 21.3826 7.31493 21.5283 6.88856 21.6791C6.88308 21.6221 6.87566 21.5821 6.87599 21.5425C6.895 19.099 6.91434 16.6554 6.93561 14.2123C6.93658 14.0891 6.95011 13.966 6.96526 13.8436C7.02681 13.3476 7.30301 13.0176 7.76386 12.8429C8.26565 12.6531 8.76969 12.4691 9.2747 12.2886C10.8055 11.741 12.3373 11.1967 13.8685 10.6508C15.2733 10.1496 16.6778 9.64815 18.0826 9.14669C19.0829 8.7896 20.0826 8.42994 21.0846 8.07769C21.2132 8.03257 21.3547 8.00486 21.4907 8.00389C22.3876 7.99744 23.2845 8.00002 24.1814 8.00002C24.2403 8.00002 24.2996 7.99905 24.3586 8.00195C24.8324 8.0258 25.0302 8.22916 25.0267 8.70098C25.0103 10.8277 24.9906 12.9541 24.9755 15.0808C24.9748 15.1891 24.9442 15.2397 24.8382 15.2767C24.1794 15.5059 23.5236 15.7431 22.8671 15.978C22.8326 15.9903 22.7988 16.0051 22.7324 16.0315V16.0322ZM24.2236 10.585H24.2449C24.2449 10.2041 24.2455 9.82283 24.2449 9.44189C24.2445 9.23467 24.1939 9.18182 23.9915 9.17988C23.2509 9.17215 22.51 9.16506 21.7694 9.15893C21.5403 9.157 21.4884 9.20856 21.4861 9.44415C21.4797 10.1957 21.4742 10.9469 21.4694 11.6985C21.4681 11.9167 21.5158 11.9673 21.7308 11.9692C22.4768 11.9763 23.2229 11.9821 23.969 11.9872C24.1714 11.9885 24.2223 11.9379 24.2236 11.7288C24.2255 11.3478 24.2242 10.9666 24.2242 10.5853L24.2236 10.585ZM11.1865 14.0985H11.1645C11.1645 14.4743 11.1645 14.85 11.1645 15.2258C11.1645 15.4372 11.2206 15.4959 11.4275 15.4975C12.1736 15.503 12.9197 15.5085 13.6661 15.513C13.8685 15.5143 13.9213 15.4611 13.9232 15.2535C13.9297 14.4914 13.9355 13.7292 13.94 12.9667C13.9413 12.7543 13.89 12.704 13.6719 12.7024C12.9258 12.6972 12.1794 12.6927 11.4333 12.6895C11.2361 12.6885 11.1881 12.7369 11.1871 12.9389C11.1852 13.3253 11.1865 13.7118 11.1865 14.0982V14.0985ZM20.7907 11.7623C20.7968 11.7623 20.8029 11.7623 20.8087 11.7623C20.8087 11.3762 20.8094 10.9898 20.8087 10.6037C20.8081 10.4161 20.7481 10.3536 20.5583 10.352C19.8019 10.3459 19.0455 10.3414 18.2891 10.3381C18.1138 10.3375 18.0584 10.3933 18.0565 10.5689C18.0484 11.3414 18.0413 12.1139 18.0352 12.8864C18.0336 13.0888 18.0877 13.142 18.293 13.1439C19.0388 13.15 19.7842 13.1555 20.5299 13.16C20.7349 13.1613 20.7887 13.1107 20.79 12.9051C20.7926 12.5242 20.7907 12.1432 20.7907 11.7626V11.7623ZM7.75097 15.2603C7.74485 15.2603 7.73905 15.2603 7.73292 15.2603C7.73292 15.6519 7.73357 16.0438 7.73292 16.4353C7.73292 16.5723 7.77708 16.6654 7.93338 16.6671C8.71136 16.6741 9.48934 16.6819 10.2676 16.6896C10.414 16.6909 10.4845 16.6177 10.4858 16.4727C10.4929 15.6893 10.5019 14.9058 10.5074 14.1227C10.5087 13.9435 10.4468 13.8845 10.2641 13.8826C9.51287 13.8739 8.76164 13.8665 8.01041 13.86C7.80802 13.8584 7.75291 13.9132 7.75194 14.1175C7.75001 14.4984 7.75129 14.8794 7.75129 15.2603H7.75097ZM17.3536 12.9357C17.3603 12.9357 17.3671 12.9357 17.3736 12.9357C17.3736 12.5435 17.3755 12.1516 17.3726 11.7594C17.3713 11.5905 17.3172 11.5361 17.1502 11.5341C16.3877 11.5251 15.6249 11.5174 14.8624 11.5116C14.6848 11.5103 14.6236 11.5673 14.6219 11.7381C14.6142 12.5222 14.6081 13.3063 14.6039 14.0908C14.6029 14.2596 14.6567 14.3125 14.8263 14.3144C15.5836 14.3238 16.3407 14.3325 17.098 14.3396C17.2994 14.3415 17.352 14.2877 17.3533 14.0801C17.3552 13.6989 17.3539 13.3173 17.3539 12.936L17.3536 12.9357Z" fill="white"/>
<path d="M26.9986 15.9039C26.9986 16.1881 27.0034 16.4402 26.9938 16.6912C26.9922 16.7296 26.9312 16.784 26.8868 16.7998C25.9315 17.1398 24.9747 17.4753 24.0182 17.8124C22.4696 18.358 20.9217 18.9043 19.3732 19.4496C17.9867 19.9378 16.6 20.4254 15.2132 20.9134C13.5229 21.5083 11.8325 22.1032 10.1422 22.6978C8.58846 23.2444 7.03475 23.791 5.48105 24.3376C5.33022 24.3908 5.1794 24.4443 5.00086 24.5071C5.00086 24.2241 4.99699 23.9637 5.00569 23.704C5.00666 23.6714 5.07015 23.6273 5.11301 23.6118C5.7595 23.3798 6.40696 23.151 7.05474 22.9228C8.62326 22.3704 10.1924 21.8183 11.761 21.2663C13.2844 20.73 14.8075 20.1941 16.3309 19.6578C18.1679 19.0113 20.0048 18.3648 21.8418 17.7183C23.2537 17.2214 24.6656 16.7244 26.0775 16.2275C26.3753 16.1227 26.6728 16.018 26.9989 15.9036L26.9986 15.9039Z" fill="white"/>
</g>
<defs>
<clipPath id="clip0_1591_8270">
<rect width="22" height="16.5074" fill="white" transform="translate(5 8)"/>
</clipPath>
</defs>
</svg>
