<svg width="16" height="17" viewBox="0 0 16 17" fill="none" xmlns="http://www.w3.org/2000/svg">
<g id="vuesax/broken/video">
<g id="video">
<path id="Vector" d="M1.33301 5.69339C1.33301 3.58672 2.03301 2.88672 4.13967 2.88672H8.35301C10.4597 2.88672 11.1597 3.58672 11.1597 5.69339V11.3067C11.1597 13.4134 10.4597 14.1134 8.35301 14.1134H4.13967C2.03301 14.1134 1.33301 12.7134 1.33301 11.3067V8.58005" stroke="#2C2C2C" stroke-linecap="round" stroke-linejoin="round"/>
<path id="Vector_2" d="M13.0135 11.8998L11.1602 10.5998V6.39318L13.0135 5.09318C13.9202 4.45984 14.6668 4.84651 14.6668 5.95984V11.0398C14.6668 12.1532 13.9202 12.5398 13.0135 11.8998Z" stroke="#2C2C2C" stroke-linecap="round" stroke-linejoin="round"/>
<path id="Vector_3" d="M8.66699 6.83325C8.66699 6.27992 8.22033 5.83325 7.66699 5.83325C7.11366 5.83325 6.66699 6.27992 6.66699 6.83325C6.66699 7.38659 7.11366 7.83325 7.66699 7.83325" stroke="#2C2C2C" stroke-linecap="round" stroke-linejoin="round"/>
</g>
</g>
</svg>
