<svg width="32" height="32" viewBox="0 0 32 32" fill="none" xmlns="http://www.w3.org/2000/svg">
<rect width="32" height="32" rx="16" fill="#757575"/>
<g clip-path="url(#clip0_2186_3852)">
<path fill-rule="evenodd" clip-rule="evenodd" d="M21.9198 15.2339L19.4728 14.633C19.4728 14.633 18.0893 12.5079 17.3986 11.8009C16.7079 11.0939 14.9496 10.485 14.5768 10.485C14.2041 10.485 10.8538 13.6215 10.8538 13.6215C10.8538 13.6215 10.8011 17.417 11.3865 17.417H12.5574L12.3973 14.5829L13.566 13.217L13.7766 17.7215L10.4284 23.4838C10.4284 23.4838 10.9085 24.6996 11.6519 24.6996C12.3952 24.6996 15.3749 18.779 15.3749 18.779L17.8766 20.4995C17.8766 20.4995 18.6747 24.7997 19.4181 24.9058C20.0009 24.9725 20.5873 25.0066 21.1743 25.008L19.7908 19.6422L16.7606 16.8102L17.0238 14.4708L18.7274 16.2413C18.7274 16.2413 20.9616 16.8001 21.5997 16.3936C22.2378 15.987 21.9198 15.2339 21.9198 15.2339Z" fill="white"/>
<path fill-rule="evenodd" clip-rule="evenodd" d="M16.5589 7C16.2161 7 15.8809 7.09673 15.5958 7.27794C15.3108 7.45916 15.0887 7.71672 14.9576 8.01804C14.8264 8.31936 14.7922 8.65089 14.8593 8.9707C14.9263 9.29051 15.0916 9.58422 15.3342 9.81467C15.5768 10.0451 15.8858 10.202 16.2221 10.2653C16.5584 10.3287 16.907 10.2958 17.2236 10.1707C17.5402 10.0456 17.8108 9.83405 18.0009 9.56271C18.1911 9.29138 18.2924 8.97248 18.292 8.64638C18.2914 8.20955 18.1086 7.79079 17.7836 7.48209C17.4587 7.17339 17.0182 7 16.5589 7Z" fill="white"/>
</g>
<defs>
<clipPath id="clip0_2186_3852">
<rect width="11.5714" height="18" fill="white" transform="matrix(-1 0 0 1 22 7)"/>
</clipPath>
</defs>
</svg>
