<svg width="24" height="24" viewBox="0 0 24 24" fill="none" xmlns="http://www.w3.org/2000/svg">
<g clip-path="url(#clip0_388_4084)">
<path d="M6.79411 23.0902L0.910013 17.2061C0.6325 16.9287 0.476585 16.5523 0.476565 16.1598V7.84017C0.476227 7.6458 0.514352 7.45328 0.588743 7.27371C0.663134 7.09414 0.772321 6.93106 0.910013 6.79387L6.79411 0.909769C6.9313 0.772076 7.09438 0.66289 7.27395 0.588499C7.45353 0.514108 7.64605 0.475983 7.84042 0.476321H16.1601C16.5525 0.47634 16.9289 0.632256 17.2064 0.909769L23.0905 6.79387C23.2282 6.93106 23.3374 7.09414 23.4118 7.27371C23.4861 7.45328 23.5243 7.6458 23.5239 7.84017V16.1598C23.5239 16.5523 23.368 16.9287 23.0905 17.2061L17.2064 23.0902C16.9289 23.3678 16.5525 23.5237 16.1601 23.5237H7.84042C7.64605 23.524 7.45353 23.4859 7.27395 23.4115C7.09438 23.3371 6.9313 23.2279 6.79411 23.0902Z" fill="#EDEF6C" stroke="#43A349" stroke-width="2" stroke-miterlimit="10"/>
<path d="M11.9033 19.6385C11.2428 19.6385 10.7998 19.1717 10.7998 18.4779C10.7998 17.7841 11.2475 17.3189 11.9414 17.3189C12.6352 17.3189 13.0528 17.7555 13.0623 18.489C13.0623 19.1829 12.6225 19.6385 11.9414 19.6385H11.9033Z" fill="white" stroke="#43A349" stroke-width="2" stroke-miterlimit="10"/>
<path d="M13.2973 5.72851C13.2973 5.03841 12.7382 4.47897 12.0485 4.47897C11.3589 4.47897 10.7998 5.03841 10.7998 5.72851V14.4181C10.7998 15.1082 11.3589 15.6676 12.0485 15.6676C12.7382 15.6676 13.2973 15.1082 13.2973 14.4181V5.72851Z" fill="white" stroke="#43A349" stroke-width="2" stroke-miterlimit="10"/>
</g>
<defs>
<clipPath id="clip0_388_4084">
<rect width="24" height="24" fill="white"/>
</clipPath>
</defs>
</svg>
